<svg width="454" height="90" viewBox="0 0 454 90" fill="none" xmlns="http://www.w3.org/2000/svg">
<mask id="mask0_3_3520" style="mask-type:alpha" maskUnits="userSpaceOnUse" x="0" y="0" width="91" height="90">
<circle cx="45.5" cy="45" r="43" stroke="white" stroke-width="4"/>
</mask>
<g mask="url(#mask0_3_3520)">
<circle cx="45.5" cy="45" r="43" stroke="white" stroke-opacity="0.2" stroke-width="4"/>
<mask id="path-3-inside-1_3_3520" fill="white">
<path d="M45.5 0C55.911 1.2415e-07 65.9999 3.60987 74.0477 10.2145C82.0955 16.8192 87.6043 26.01 89.6353 36.2209C91.6664 46.4319 90.0942 57.0312 85.1865 66.2129C80.2787 75.3945 72.3392 82.5905 62.7207 86.5746C53.1022 90.5587 42.3999 91.0845 32.4372 88.0623C22.4745 85.0402 13.8679 78.6571 8.08386 70.0006C2.29983 61.3442 -0.30377 50.9501 0.716689 40.5892C1.73715 30.2284 6.31852 20.5419 13.6802 13.1802L45.5 45V0Z"/>
</mask>
<path d="M45.5 0C55.911 1.2415e-07 65.9999 3.60987 74.0477 10.2145C82.0955 16.8192 87.6043 26.01 89.6353 36.2209C91.6664 46.4319 90.0942 57.0312 85.1865 66.2129C80.2787 75.3945 72.3392 82.5905 62.7207 86.5746C53.1022 90.5587 42.3999 91.0845 32.4372 88.0623C22.4745 85.0402 13.8679 78.6571 8.08386 70.0006C2.29983 61.3442 -0.30377 50.9501 0.716689 40.5892C1.73715 30.2284 6.31852 20.5419 13.6802 13.1802L45.5 45V0Z" stroke="#FF9549" stroke-width="8" mask="url(#path-3-inside-1_3_3520)"/>
</g>
<path d="M49.6853 37.886C50.932 38.362 51.8727 39.0987 52.5073 40.096C53.1647 41.0707 53.4933 42.2833 53.4933 43.734C53.4933 46.0233 52.6547 47.8027 50.9773 49.072C49.3227 50.3413 47.0447 50.976 44.1433 50.976C41.6047 50.976 39.2813 50.6133 37.1733 49.888V44.278C38.148 44.6407 39.2133 44.9353 40.3693 45.162C41.5253 45.366 42.5793 45.468 43.5313 45.468C44.8007 45.468 45.7527 45.264 46.3873 44.856C47.0447 44.448 47.3733 43.87 47.3733 43.122C47.3733 42.4647 47.056 41.932 46.4213 41.524C45.8093 41.0933 44.9933 40.878 43.9733 40.878H41.2873V35.71H43.7693C44.6987 35.71 45.4353 35.54 45.9793 35.2C46.546 34.8373 46.8293 34.3727 46.8293 33.806C46.8293 33.126 46.546 32.616 45.9793 32.276C45.4353 31.9133 44.642 31.732 43.5993 31.732C41.7633 31.732 39.848 32.0833 37.8533 32.786V27.278C39.78 26.5753 41.8767 26.224 44.1433 26.224C45.8887 26.224 47.43 26.5073 48.7673 27.074C50.1047 27.618 51.136 28.4 51.8613 29.42C52.5867 30.4173 52.9493 31.5733 52.9493 32.888C52.9493 35.1773 51.8613 36.8433 49.6853 37.886Z" fill="white"/>
<path d="M41.0332 68.816H42.0292V71.252H41.2852V69.5H36.2092V71.252H35.4652V68.816H35.7292C35.9692 68.816 36.1652 68.708 36.3172 68.492C36.4692 68.276 36.5892 67.916 36.6772 67.412C36.7652 66.9 36.8332 66.192 36.8812 65.288L36.9652 63.26H41.0332V68.816ZM37.6012 65.648C37.5452 67.192 37.3292 68.248 36.9532 68.816H40.2652V63.944H37.6852L37.6012 65.648ZM47.4828 65.936V63.26H48.2388V69.5H47.4828V66.62H44.1228V69.5H43.3668V63.26H44.1228V65.936H47.4828ZM54.9026 63.26V69.5H54.1466V67.124H52.3946H52.3106L50.7506 69.5H49.9106L51.5546 67.028C51.0826 66.916 50.7186 66.704 50.4626 66.392C50.2146 66.08 50.0906 65.68 50.0906 65.192C50.0906 64.576 50.2906 64.1 50.6906 63.764C51.0906 63.428 51.6586 63.26 52.3946 63.26H54.9026ZM54.1466 66.44V63.944H52.3946C51.9066 63.944 51.5266 64.052 51.2546 64.268C50.9826 64.476 50.8466 64.784 50.8466 65.192C50.8466 65.6 50.9826 65.912 51.2546 66.128C51.5266 66.336 51.9066 66.44 52.3946 66.44H54.1466Z" fill="white"/>
<path d="M105.995 45.825C104.877 45.825 103.941 45.461 103.187 44.733C102.459 43.979 102.095 43.043 102.095 41.925C102.095 40.781 102.459 39.845 103.187 39.117C103.941 38.389 104.877 38.025 105.995 38.025C107.139 38.025 108.075 38.389 108.803 39.117C109.531 39.845 109.895 40.781 109.895 41.925C109.895 43.043 109.531 43.979 108.803 44.733C108.075 45.461 107.139 45.825 105.995 45.825ZM105.995 58.851C104.877 58.851 103.941 58.487 103.187 57.759C102.459 57.005 102.095 56.069 102.095 54.951C102.095 53.807 102.459 52.871 103.187 52.143C103.941 51.415 104.877 51.051 105.995 51.051C107.139 51.051 108.075 51.415 108.803 52.143C109.531 52.871 109.895 53.807 109.895 54.951C109.895 56.069 109.531 57.005 108.803 57.759C108.075 58.487 107.139 58.851 105.995 58.851Z" fill="white"/>
<mask id="mask1_3_3520" style="mask-type:alpha" maskUnits="userSpaceOnUse" x="121" y="0" width="91" height="90">
<circle cx="166.5" cy="45" r="43" stroke="white" stroke-width="4"/>
</mask>
<g mask="url(#mask1_3_3520)">
<circle cx="166.5" cy="45" r="43" stroke="white" stroke-opacity="0.2" stroke-width="4"/>
<mask id="path-9-inside-2_3_3520" fill="white">
<path d="M166.5 0C172.409 7.04699e-08 178.261 1.16396 183.721 3.42542C189.18 5.68688 194.141 9.00156 198.32 13.1802C202.498 17.3588 205.813 22.3196 208.075 27.7793C210.336 33.2389 211.5 39.0905 211.5 45C211.5 50.9095 210.336 56.7611 208.075 62.2208C205.813 67.6804 202.498 72.6412 198.32 76.8198C194.141 80.9985 189.18 84.3131 183.721 86.5746C178.261 88.836 172.409 90 166.5 90L166.5 45V0Z"/>
</mask>
<path d="M166.5 0C172.409 7.04699e-08 178.261 1.16396 183.721 3.42542C189.18 5.68688 194.141 9.00156 198.32 13.1802C202.498 17.3588 205.813 22.3196 208.075 27.7793C210.336 33.2389 211.5 39.0905 211.5 45C211.5 50.9095 210.336 56.7611 208.075 62.2208C205.813 67.6804 202.498 72.6412 198.32 76.8198C194.141 80.9985 189.18 84.3131 183.721 86.5746C178.261 88.836 172.409 90 166.5 90L166.5 45V0Z" stroke="#FF9549" stroke-width="8" mask="url(#path-9-inside-2_3_3520)"/>
</g>
<path d="M156.632 50.976C154.592 50.976 152.835 50.4773 151.362 49.48C149.889 48.4827 148.755 47.0547 147.962 45.196C147.169 43.3147 146.772 41.116 146.772 38.6C146.772 36.084 147.169 33.8967 147.962 32.038C148.755 30.1567 149.889 28.7173 151.362 27.72C152.835 26.7227 154.592 26.224 156.632 26.224C158.672 26.224 160.429 26.7227 161.902 27.72C163.375 28.7173 164.509 30.1567 165.302 32.038C166.095 33.8967 166.492 36.084 166.492 38.6C166.492 41.116 166.095 43.3147 165.302 45.196C164.509 47.0547 163.375 48.4827 161.902 49.48C160.429 50.4773 158.672 50.976 156.632 50.976ZM156.632 45.604C157.765 45.604 158.638 44.992 159.25 43.768C159.885 42.5213 160.202 40.7987 160.202 38.6C160.202 36.4013 159.885 34.69 159.25 33.466C158.638 32.2193 157.765 31.596 156.632 31.596C155.499 31.596 154.615 32.2193 153.98 33.466C153.368 34.69 153.062 36.4013 153.062 38.6C153.062 40.7987 153.368 42.5213 153.98 43.768C154.615 44.992 155.499 45.604 156.632 45.604ZM177.963 34.078C179.618 34.1233 181.091 34.5087 182.383 35.234C183.675 35.9593 184.684 36.9567 185.409 38.226C186.135 39.4727 186.497 40.9007 186.497 42.51C186.497 44.1647 186.112 45.638 185.341 46.93C184.593 48.1993 183.539 49.1967 182.179 49.922C180.819 50.6247 179.278 50.976 177.555 50.976C175.833 50.976 174.291 50.6247 172.931 49.922C171.571 49.1967 170.506 48.1993 169.735 46.93C168.987 45.638 168.613 44.1647 168.613 42.51C168.613 41.2407 168.829 40.0167 169.259 38.838C169.713 37.6367 170.427 36.22 171.401 34.588L176.127 26.7H182.689L177.963 34.078ZM177.555 45.706C178.439 45.706 179.153 45.4113 179.697 44.822C180.264 44.21 180.547 43.4167 180.547 42.442C180.547 41.4673 180.264 40.6853 179.697 40.096C179.153 39.484 178.439 39.178 177.555 39.178C176.671 39.178 175.946 39.484 175.379 40.096C174.835 40.6853 174.563 41.4673 174.563 42.442C174.563 43.4167 174.835 44.21 175.379 44.822C175.946 45.4113 176.671 45.706 177.555 45.706Z" fill="white"/>
<path d="M155.431 63.26H156.187V69.5H155.431V66.968C154.815 67.336 154.175 67.52 153.511 67.52C152.815 67.52 152.283 67.328 151.915 66.944C151.555 66.56 151.375 65.992 151.375 65.24V63.26H152.131V65.204C152.131 65.772 152.259 66.188 152.515 66.452C152.771 66.708 153.155 66.836 153.667 66.836C154.267 66.836 154.855 66.648 155.431 66.272V63.26ZM160.256 63.116C161.016 63.116 161.588 63.32 161.972 63.728C162.356 64.128 162.548 64.72 162.548 65.504V69.5H161.852V68.528H161.792C161.288 69.272 160.608 69.644 159.752 69.644C159.16 69.644 158.68 69.476 158.312 69.14C157.944 68.804 157.76 68.36 157.76 67.808C157.76 67.224 157.976 66.752 158.408 66.392C158.848 66.024 159.476 65.8 160.292 65.72L161.792 65.552V65.528C161.792 64.944 161.664 64.512 161.408 64.232C161.152 63.944 160.756 63.8 160.22 63.8C159.9 63.8 159.576 63.844 159.248 63.932C158.928 64.012 158.632 64.128 158.36 64.28V63.536C158.584 63.416 158.864 63.316 159.2 63.236C159.544 63.156 159.896 63.116 160.256 63.116ZM159.86 68.96C160.22 68.96 160.544 68.872 160.832 68.696C161.128 68.512 161.36 68.244 161.528 67.892C161.704 67.54 161.792 67.12 161.792 66.632V66.212L160.34 66.368C159.148 66.504 158.552 66.968 158.552 67.76C158.552 68.136 158.668 68.432 158.9 68.648C159.14 68.856 159.46 68.96 159.86 68.96ZM167.161 69.644C166.177 69.644 165.405 69.352 164.845 68.768C164.285 68.184 164.005 67.388 164.005 66.38C164.005 65.724 164.133 65.152 164.389 64.664C164.645 64.168 165.009 63.788 165.481 63.524C165.961 63.252 166.521 63.116 167.161 63.116C167.433 63.116 167.705 63.144 167.977 63.2C168.257 63.248 168.489 63.32 168.673 63.416V64.16C168.489 64.048 168.257 63.96 167.977 63.896C167.705 63.832 167.433 63.8 167.161 63.8C166.433 63.8 165.861 64.028 165.445 64.484C165.029 64.932 164.821 65.564 164.821 66.38C164.821 67.212 165.025 67.852 165.433 68.3C165.841 68.74 166.417 68.96 167.161 68.96C167.449 68.96 167.733 68.924 168.013 68.852C168.301 68.78 168.541 68.688 168.733 68.576V69.32C168.533 69.424 168.293 69.504 168.013 69.56C167.733 69.616 167.449 69.644 167.161 69.644ZM172.532 69.644C171.964 69.644 171.464 69.512 171.032 69.248C170.608 68.976 170.28 68.596 170.048 68.108C169.816 67.612 169.7 67.036 169.7 66.38C169.7 65.724 169.816 65.152 170.048 64.664C170.28 64.168 170.608 63.788 171.032 63.524C171.464 63.252 171.964 63.116 172.532 63.116C173.1 63.116 173.596 63.252 174.02 63.524C174.452 63.788 174.784 64.168 175.016 64.664C175.248 65.152 175.364 65.724 175.364 66.38C175.364 67.036 175.248 67.612 175.016 68.108C174.784 68.596 174.452 68.976 174.02 69.248C173.596 69.512 173.1 69.644 172.532 69.644ZM172.532 68.96C173.164 68.96 173.656 68.732 174.008 68.276C174.368 67.82 174.548 67.188 174.548 66.38C174.548 65.572 174.368 64.94 174.008 64.484C173.656 64.028 173.164 63.8 172.532 63.8C171.9 63.8 171.404 64.028 171.044 64.484C170.692 64.94 170.516 65.572 170.516 66.38C170.516 67.188 170.692 67.82 171.044 68.276C171.404 68.732 171.9 68.96 172.532 68.96ZM180.519 66.236C180.903 66.348 181.199 66.54 181.407 66.812C181.615 67.076 181.719 67.4 181.719 67.784C181.719 68.336 181.527 68.76 181.143 69.056C180.767 69.352 180.231 69.5 179.535 69.5H176.871V63.26H179.331C179.987 63.26 180.499 63.404 180.867 63.692C181.235 63.98 181.419 64.38 181.419 64.892C181.419 65.204 181.343 65.476 181.191 65.708C181.039 65.94 180.815 66.116 180.519 66.236ZM177.615 63.944V65.984H179.331C179.747 65.984 180.071 65.896 180.303 65.72C180.535 65.544 180.651 65.292 180.651 64.964C180.651 64.636 180.535 64.384 180.303 64.208C180.079 64.032 179.755 63.944 179.331 63.944H177.615ZM179.535 68.816C180.479 68.816 180.951 68.452 180.951 67.724C180.951 67.372 180.831 67.104 180.591 66.92C180.351 66.736 179.999 66.644 179.535 66.644H177.615V68.816H179.535Z" fill="white"/>
<path d="M226.995 45.825C225.877 45.825 224.941 45.461 224.187 44.733C223.459 43.979 223.095 43.043 223.095 41.925C223.095 40.781 223.459 39.845 224.187 39.117C224.941 38.389 225.877 38.025 226.995 38.025C228.139 38.025 229.075 38.389 229.803 39.117C230.531 39.845 230.895 40.781 230.895 41.925C230.895 43.043 230.531 43.979 229.803 44.733C229.075 45.461 228.139 45.825 226.995 45.825ZM226.995 58.851C225.877 58.851 224.941 58.487 224.187 57.759C223.459 57.005 223.095 56.069 223.095 54.951C223.095 53.807 223.459 52.871 224.187 52.143C224.941 51.415 225.877 51.051 226.995 51.051C228.139 51.051 229.075 51.415 229.803 52.143C230.531 52.871 230.895 53.807 230.895 54.951C230.895 56.069 230.531 57.005 229.803 57.759C229.075 58.487 228.139 58.851 226.995 58.851Z" fill="white"/>
<mask id="mask2_3_3520" style="mask-type:alpha" maskUnits="userSpaceOnUse" x="242" y="0" width="91" height="90">
<circle cx="287.5" cy="45" r="43" stroke="white" stroke-width="4"/>
</mask>
<g mask="url(#mask2_3_3520)">
<circle cx="287.5" cy="45" r="43" stroke="white" stroke-opacity="0.2" stroke-width="4"/>
<mask id="path-15-inside-3_3_3520" fill="white">
<path d="M287.5 0C297.865 1.23602e-07 307.912 3.57814 315.944 10.1298C323.976 16.6815 329.5 25.805 331.582 35.9586L287.5 45V0Z"/>
</mask>
<path d="M287.5 0C297.865 1.23602e-07 307.912 3.57814 315.944 10.1298C323.976 16.6815 329.5 25.805 331.582 35.9586L287.5 45V0Z" stroke="#FF9549" stroke-width="8" mask="url(#path-15-inside-3_3_3520)"/>
</g>
<path d="M286.292 50.5H270.312V44.992H275.14V32.038H271.502V26.7H281.26V44.992H286.292V50.5ZM302.637 40.47H305.187V45.638H302.637V50.5H296.857V45.638H286.997V39.96L295.871 26.7H302.637V40.47ZM297.027 33.67H296.687L292.165 40.47H297.027V33.67Z" fill="white"/>
<path d="M271.943 69.5H271.211V63.26H272.375L274.571 68.66H274.619L276.815 63.26H277.943V69.5H277.211V64.052H277.163L274.943 69.5H274.211L271.991 64.052H271.943V69.5ZM280.95 69.5H279.906V63.26H280.65V68.684H280.698L283.914 63.26H284.958V69.5H284.214V64.076H284.166L280.95 69.5ZM291.041 65.936V63.26H291.797V69.5H291.041V66.62H287.681V69.5H286.925V63.26H287.681V65.936H291.041ZM298.089 63.26H298.857L296.205 70.34C296.013 70.884 295.789 71.264 295.533 71.48C295.285 71.696 294.925 71.804 294.453 71.804C294.245 71.804 294.073 71.784 293.937 71.744V71.06C294.097 71.1 294.257 71.12 294.417 71.12C294.729 71.12 294.961 71.052 295.113 70.916C295.273 70.788 295.421 70.544 295.557 70.184L295.821 69.5H295.605L293.133 63.26H293.949L295.341 66.836L296.049 68.696H296.109L296.781 66.836L298.089 63.26ZM302.375 69.5H301.607V63.944H299.471V63.26H304.511V63.944H302.375V69.5Z" fill="white"/>
<path d="M347.995 45.825C346.877 45.825 345.941 45.461 345.187 44.733C344.459 43.979 344.095 43.043 344.095 41.925C344.095 40.781 344.459 39.845 345.187 39.117C345.941 38.389 346.877 38.025 347.995 38.025C349.139 38.025 350.075 38.389 350.803 39.117C351.531 39.845 351.895 40.781 351.895 41.925C351.895 43.043 351.531 43.979 350.803 44.733C350.075 45.461 349.139 45.825 347.995 45.825ZM347.995 58.851C346.877 58.851 345.941 58.487 345.187 57.759C344.459 57.005 344.095 56.069 344.095 54.951C344.095 53.807 344.459 52.871 345.187 52.143C345.941 51.415 346.877 51.051 347.995 51.051C349.139 51.051 350.075 51.415 350.803 52.143C351.531 52.871 351.895 53.807 351.895 54.951C351.895 56.069 351.531 57.005 350.803 57.759C350.075 58.487 349.139 58.851 347.995 58.851Z" fill="white"/>
<mask id="mask3_3_3520" style="mask-type:alpha" maskUnits="userSpaceOnUse" x="363" y="0" width="91" height="90">
<circle cx="408.5" cy="45" r="43" stroke="white" stroke-width="4"/>
</mask>
<g mask="url(#mask3_3_3520)">
<circle cx="408.5" cy="45" r="43" stroke="white" stroke-opacity="0.2" stroke-width="4"/>
<mask id="path-21-inside-4_3_3520" fill="white">
<path d="M408.5 0C418.911 1.2415e-07 429 3.60987 437.048 10.2145C445.096 16.8192 450.604 26.01 452.635 36.2209C454.666 46.4319 453.094 57.0312 448.186 66.2129C443.279 75.3945 435.339 82.5905 425.721 86.5746C416.102 90.5587 405.4 91.0845 395.437 88.0623C385.474 85.0402 376.868 78.6571 371.084 70.0006C365.3 61.3442 362.696 50.9501 363.717 40.5892C364.737 30.2284 369.319 20.5419 376.68 13.1802L408.5 45V0Z"/>
</mask>
<path d="M408.5 0C418.911 1.2415e-07 429 3.60987 437.048 10.2145C445.096 16.8192 450.604 26.01 452.635 36.2209C454.666 46.4319 453.094 57.0312 448.186 66.2129C443.279 75.3945 435.339 82.5905 425.721 86.5746C416.102 90.5587 405.4 91.0845 395.437 88.0623C385.474 85.0402 376.868 78.6571 371.084 70.0006C365.3 61.3442 362.696 50.9501 363.717 40.5892C364.737 30.2284 369.319 20.5419 376.68 13.1802L408.5 45V0Z" stroke="#FF9549" stroke-width="8" mask="url(#path-21-inside-4_3_3520)"/>
</g>
<path d="M398.987 35.37C400.596 35.37 402.035 35.676 403.305 36.288C404.574 36.8773 405.571 37.75 406.297 38.906C407.045 40.0393 407.419 41.3993 407.419 42.986C407.419 45.5247 406.569 47.4967 404.869 48.902C403.191 50.2847 400.857 50.976 397.865 50.976C395.439 50.976 393.127 50.636 390.929 49.956V44.38C393.15 45.1053 395.224 45.468 397.151 45.468C398.352 45.468 399.315 45.2413 400.041 44.788C400.766 44.312 401.129 43.6887 401.129 42.918C401.129 42.102 400.732 41.4787 399.939 41.048C399.168 40.5947 398.023 40.368 396.505 40.368C394.805 40.368 393.218 40.5153 391.745 40.81L392.901 26.7H406.535V31.868H397.763L397.423 35.54C398.035 35.4267 398.556 35.37 398.987 35.37ZM417.68 35.37C419.289 35.37 420.729 35.676 421.998 36.288C423.267 36.8773 424.265 37.75 424.99 38.906C425.738 40.0393 426.112 41.3993 426.112 42.986C426.112 45.5247 425.262 47.4967 423.562 48.902C421.885 50.2847 419.55 50.976 416.558 50.976C414.133 50.976 411.821 50.636 409.622 49.956V44.38C411.843 45.1053 413.917 45.468 415.844 45.468C417.045 45.468 418.009 45.2413 418.734 44.788C419.459 44.312 419.822 43.6887 419.822 42.918C419.822 42.102 419.425 41.4787 418.632 41.048C417.861 40.5947 416.717 40.368 415.198 40.368C413.498 40.368 411.911 40.5153 410.438 40.81L411.594 26.7H425.228V31.868H416.456L416.116 35.54C416.728 35.4267 417.249 35.37 417.68 35.37Z" fill="white"/>
<path d="M392.62 69.644C391.636 69.644 390.864 69.352 390.304 68.768C389.744 68.184 389.464 67.388 389.464 66.38C389.464 65.724 389.592 65.152 389.848 64.664C390.104 64.168 390.468 63.788 390.94 63.524C391.42 63.252 391.98 63.116 392.62 63.116C392.892 63.116 393.164 63.144 393.436 63.2C393.716 63.248 393.948 63.32 394.132 63.416V64.16C393.948 64.048 393.716 63.96 393.436 63.896C393.164 63.832 392.892 63.8 392.62 63.8C391.892 63.8 391.32 64.028 390.904 64.484C390.488 64.932 390.28 65.564 390.28 66.38C390.28 67.212 390.484 67.852 390.892 68.3C391.3 68.74 391.876 68.96 392.62 68.96C392.908 68.96 393.192 68.924 393.472 68.852C393.76 68.78 394 68.688 394.192 68.576V69.32C393.992 69.424 393.752 69.504 393.472 69.56C393.192 69.616 392.908 69.644 392.62 69.644ZM400.643 66.236C400.643 66.348 400.631 66.448 400.607 66.536H395.975C395.999 67.304 396.207 67.9 396.599 68.324C396.991 68.748 397.547 68.96 398.267 68.96C398.987 68.96 399.639 68.792 400.223 68.456V69.212C399.599 69.5 398.947 69.644 398.267 69.644C397.275 69.644 396.507 69.356 395.963 68.78C395.427 68.196 395.159 67.396 395.159 66.38C395.159 65.732 395.275 65.164 395.507 64.676C395.739 64.18 396.067 63.796 396.491 63.524C396.915 63.252 397.407 63.116 397.967 63.116C398.791 63.116 399.443 63.396 399.923 63.956C400.403 64.516 400.643 65.276 400.643 66.236ZM397.967 63.8C397.415 63.8 396.967 63.984 396.623 64.352C396.279 64.72 396.071 65.232 395.999 65.888H399.839C399.791 65.232 399.607 64.72 399.287 64.352C398.967 63.984 398.527 63.8 397.967 63.8ZM407.111 63.26L404.867 66.248L407.423 69.5H406.499L404.267 66.62H402.851V69.5H402.095V63.26H402.851V65.936H404.255L406.235 63.26H407.111ZM412.837 63.26H413.605L410.953 70.34C410.761 70.884 410.537 71.264 410.281 71.48C410.033 71.696 409.673 71.804 409.201 71.804C408.993 71.804 408.821 71.784 408.685 71.744V71.06C408.845 71.1 409.005 71.12 409.165 71.12C409.477 71.12 409.709 71.052 409.861 70.916C410.021 70.788 410.169 70.544 410.305 70.184L410.569 69.5H410.353L407.881 63.26H408.697L410.089 66.836L410.797 68.696H410.857L411.529 66.836L412.837 63.26ZM419.055 65.936V63.26H419.811V69.5H419.055V66.62H415.695V69.5H414.939V63.26H415.695V65.936H419.055ZM426.715 68.816H427.711V71.252H426.967V69.5H421.891V71.252H421.147V68.816H421.411C421.651 68.816 421.847 68.708 421.999 68.492C422.151 68.276 422.271 67.916 422.359 67.412C422.447 66.9 422.515 66.192 422.563 65.288L422.647 63.26H426.715V68.816ZM423.283 65.648C423.227 67.192 423.011 68.248 422.635 68.816H425.947V63.944H423.367L423.283 65.648Z" fill="white"/>
</svg>
